<svg width="174" height="54" viewBox="0 0 174 54" fill="none" xmlns="http://www.w3.org/2000/svg">
<g clip-path="url(#clip0_1_86)">
<path d="M106.005 37.7228V16.1074H109.908V22.2171L110.233 22.2634C111.348 17.5423 113.579 15.876 116.924 15.876H117.761V20.3194H116.645C111.952 20.3194 110.047 22.1708 110.047 27.0308V37.7228H106.005Z" fill="#EBEFF2"/>
<path d="M127.425 45.5451C119.247 45.5914 116.831 43.7863 116.831 40.9166C116.831 39.0189 118.69 37.6766 121.71 37.0286V36.7971C120.084 36.4731 119.015 35.5937 119.015 34.0663C119.015 32.9554 119.944 31.9834 121.246 31.2891L122.872 30.2709C119.759 29.2063 118.086 26.8457 118.086 23.652C118.086 18.7457 121.571 16.1074 127.472 16.1074H138.02V19.3011H135.418C134.256 19.3011 132.862 19.2086 130.91 19.0234V19.44C133.884 20.0417 136.347 21.2914 136.347 24.4389C136.347 28.4657 133.187 30.8726 127.147 30.8726C125.753 30.8726 124.545 30.7337 123.476 30.4097L122.872 31.3817C122.5 31.9834 122.221 32.4 122.221 32.8629C122.221 33.7886 123.011 34.1588 124.498 34.1588C126.914 34.1588 129.516 34.1126 131.886 34.1126C136.301 34.1126 138.577 36.0103 138.577 39.2966C138.577 43.5548 135.836 45.5914 127.425 45.5451ZM135.232 39.4354C135.232 38.0469 134.256 36.9823 131.84 36.9823H124.033C121.338 36.9823 120.084 38.4171 120.084 39.7594C120.084 41.7034 121.664 42.5366 127.565 42.5366C133.791 42.5366 135.232 41.472 135.232 39.4354ZM121.803 23.652C121.803 26.3366 123.29 27.9566 127.24 27.9566C131.189 27.9566 132.816 26.3829 132.816 23.652C132.816 20.9211 130.91 19.3011 127.147 19.3011C123.383 19.3011 121.803 21.06 121.803 23.652Z" fill="#EBEFF2"/>
<path d="M138.577 27.0771C138.577 19.8566 142.806 15.552 149.357 15.552C155.909 15.552 159.115 19.5326 159.115 25.5034C159.115 26.1514 159.069 27.1234 158.976 28.0954H142.62C142.945 32.4926 145.268 34.8994 149.45 34.8994C153.354 34.8994 154.701 32.9554 155.398 30.5486L158.93 31.5206C157.861 35.64 155.073 38.232 149.45 38.232C142.713 38.232 138.577 34.2514 138.577 27.0771ZM142.666 25.1794H155.352C155.166 21.06 153.261 18.7457 149.265 18.7457C145.268 18.7457 143.131 20.8749 142.666 25.1794Z" fill="#EBEFF2"/>
<path d="M169.632 9.07199L160.525 44.712H164.707L174 8.00742L169.632 9.07199Z" fill="#EBEFF2"/>
<path d="M62.4349 37.6071L66.7098 36.558V26.8457H79.4415V23.1428H66.7098V13.8394H80.9749V9.95142H62.4349V37.6071Z" fill="#EBEFF2"/>
<path d="M103.193 26.8457C103.193 19.764 98.8721 15.552 92.3204 15.552C85.7687 15.552 81.4473 19.764 81.4473 26.8457C81.4473 28.836 81.7803 30.6103 82.3921 32.1454L83.9875 31.752C85.575 35.5397 88.9826 37.7537 93.8538 37.7537C100.661 37.7537 104.642 33.4414 104.719 26.5294L103.186 26.9074C103.186 26.9074 103.186 26.8689 103.186 26.8457H103.193ZM93.815 34.236C90.818 34.236 88.8587 32.9169 87.8441 30.6643L86.2566 31.05C85.7532 29.862 85.4899 28.4349 85.4899 26.7994C85.4899 21.9394 87.8596 19.0234 92.3204 19.0234C96.7811 19.0234 99.1509 21.9394 99.1509 26.7994C99.1509 27.2314 99.1277 27.648 99.0889 28.0569L100.615 27.6866C100.204 31.7289 97.9583 34.2437 93.815 34.2437V34.236Z" fill="#EBEFF2"/>
<path d="M13.1964 53.9229C13.026 53.9229 12.8556 53.8457 12.7472 53.6991C12.5768 53.4754 12.5923 53.1591 12.7937 52.9509L46.1486 19.5171C46.3112 19.3551 46.559 19.3089 46.7681 19.3937C46.9772 19.4786 47.1166 19.6869 47.1166 19.9183L47.0934 34.0894C47.0934 34.29 46.985 34.4751 46.8068 34.5754L13.4674 53.8457C13.3745 53.8997 13.2816 53.9229 13.1809 53.9229H13.1964ZM45.9782 21.2914L16.6271 50.7137L45.955 33.7577L45.9705 21.2914H45.9782Z" fill="#EBEFF2"/>
<path d="M12.8866 54C12.7859 54 12.693 53.9768 12.6001 53.9228L0.286541 46.8411C0.108421 46.7408 0 46.5557 0 46.3474V7.64484C0 7.35941 0.209097 7.12027 0.495638 7.0817C0.774435 7.04313 1.04549 7.22055 1.12293 7.49827L13.4364 53.2826C13.4984 53.5063 13.4132 53.7377 13.2351 53.8766C13.1344 53.9537 13.0105 53.9923 12.8866 53.9923V54ZM1.13842 46.0234L11.9805 52.2566L1.13842 11.9494V46.0234Z" fill="#EBEFF2"/>
<path d="M46.5513 20.4814C46.5048 20.4814 46.4506 20.4814 46.4041 20.466L0.441429 8.19256C0.216843 8.13085 0.0542112 7.94571 0.0232338 7.72199C-0.00774354 7.49828 0.100677 7.27457 0.30203 7.15885L12.6001 0.0771369C12.7782 -0.0231488 12.995 -0.0231488 13.1654 0.0771369L46.8301 19.4246C47.0779 19.5634 47.1786 19.872 47.0701 20.1343C46.9772 20.3503 46.7681 20.4814 46.5435 20.4814H46.5513ZM2.06 7.45199L42.5242 18.252L12.8866 1.21885L2.06 7.45199Z" fill="#EBEFF2"/>
</g>
<defs>
<clipPath id="clip0_1_86">
<rect width="174" height="54" fill="white"/>
</clipPath>
</defs>
</svg>
