<svg width="156" height="49" viewBox="0 0 156 49" fill="none" xmlns="http://www.w3.org/2000/svg">
<path d="M95.0391 33.826V14.4435H98.5384V19.922L98.83 19.9635C99.8299 15.7301 101.83 14.236 104.829 14.236H105.579V18.2204H104.579C100.371 18.2204 98.6634 19.8805 98.6634 24.2385V33.826H95.0391Z" fill="#959EA6"/>
<path d="M114.244 40.8401C106.912 40.8816 104.746 39.263 104.746 36.6897C104.746 34.988 106.412 33.7844 109.12 33.2033V32.9958C107.662 32.7053 106.704 31.9167 106.704 30.5471C106.704 29.551 107.537 28.6794 108.703 28.0568L110.161 27.1437C107.37 26.1891 105.87 24.0724 105.87 21.2086C105.87 16.8092 108.995 14.4434 114.286 14.4434H123.742V17.3072H121.409C120.368 17.3072 119.118 17.2242 117.368 17.0582V17.4317C120.035 17.9713 122.242 19.0919 122.242 21.9142C122.242 25.5251 119.41 27.6833 113.994 27.6833C112.744 27.6833 111.661 27.5588 110.703 27.2682L110.161 28.1398C109.828 28.6794 109.578 29.0529 109.578 29.468C109.578 30.298 110.286 30.6301 111.619 30.6301C113.786 30.6301 116.119 30.5886 118.243 30.5886C122.201 30.5886 124.242 32.2902 124.242 35.237C124.242 39.0554 121.784 40.8816 114.244 40.8401ZM121.243 35.3616C121.243 34.1164 120.368 33.1618 118.202 33.1618H111.203C108.787 33.1618 107.662 34.4485 107.662 35.6521C107.662 37.3953 109.078 38.1423 114.369 38.1423C119.951 38.1423 121.243 37.1877 121.243 35.3616ZM109.203 21.2086C109.203 23.6159 110.536 25.0685 114.077 25.0685C117.618 25.0685 119.076 23.6574 119.076 21.2086C119.076 18.7599 117.368 17.3072 113.994 17.3072C110.62 17.3072 109.203 18.8844 109.203 21.2086Z" fill="#959EA6"/>
<path d="M124.242 24.2799C124.242 17.8053 128.033 13.9454 133.907 13.9454C139.781 13.9454 142.656 17.5147 142.656 22.8688C142.656 23.4498 142.614 24.3214 142.531 25.193H127.867C128.158 29.1359 130.241 31.2942 133.991 31.2942C137.49 31.2942 138.698 29.551 139.323 27.3927L142.489 28.2643C141.531 31.9582 139.031 34.2825 133.991 34.2825C127.95 34.2825 124.242 30.7131 124.242 24.2799ZM127.908 22.5783H139.281C139.115 18.8844 137.407 16.8092 133.824 16.8092C130.241 16.8092 128.325 18.7184 127.908 22.5783Z" fill="#959EA6"/>
<path d="M152.084 8.13477L143.919 40.093H147.668L156 7.18018L152.084 8.13477Z" fill="#959EA6"/>
<path d="M55.9763 33.7221L59.809 32.7813V24.0723H71.2236V20.752H59.809V12.4096H72.5983V8.92328H55.9763V33.7221Z" fill="#959EA6"/>
<path d="M92.519 24.0724C92.519 17.7223 88.6447 13.9454 82.7707 13.9454C76.8968 13.9454 73.0225 17.7223 73.0225 24.0724C73.0225 25.8571 73.321 27.4481 73.8695 28.8246L75.2998 28.4719C76.7232 31.8683 79.7782 33.8536 84.1455 33.8536C90.2485 33.8536 93.8174 29.9868 93.8868 23.7888L92.512 24.1278C92.512 24.1278 92.512 24.0932 92.512 24.0724H92.519ZM84.1108 30.6993C81.4237 30.6993 79.6671 29.5164 78.7575 27.4965L77.3342 27.8424C76.8829 26.7771 76.6468 25.4974 76.6468 24.0309C76.6468 19.673 78.7714 17.0582 82.7707 17.0582C86.77 17.0582 88.8946 19.673 88.8946 24.0309C88.8946 24.4183 88.8738 24.7918 88.8391 25.1584L90.2069 24.8264C89.8389 28.4511 87.8254 30.7062 84.1108 30.7062V30.6993Z" fill="#959EA6"/>
<path d="M41.7979 17.7224L11.4746 48.3525L41.7772 30.6994L41.7979 17.7224Z" fill="#959EA6"/>
<path d="M0 6.48853L11.1921 48.4217L0 41.9332V6.48853Z" fill="#959EA6"/>
<path d="M41.7977 17.7223L0.0205078 6.4885L11.1919 0L41.7977 17.7223Z" fill="#959EA6"/>
</svg>
